<svg id="visual" viewBox="0 0 960 540" width="960" height="540" xmlns="http://www.w3.org/2000/svg" xmlns:xlink="http://www.w3.org/1999/xlink" version="1.1"><rect x="0" y="0" width="960" height="540" fill="#001220"></rect><defs><linearGradient id="grad1_0" x1="43.8%" y1="0%" x2="100%" y2="100%"><stop offset="14.444444444444446%" stop-color="#fbae3c" stop-opacity="1"></stop><stop offset="85.55555555555554%" stop-color="#fbae3c" stop-opacity="1"></stop></linearGradient></defs><defs><linearGradient id="grad1_1" x1="43.8%" y1="0%" x2="100%" y2="100%"><stop offset="14.444444444444446%" stop-color="#fbae3c" stop-opacity="1"></stop><stop offset="85.55555555555554%" stop-color="#f48350" stop-opacity="1"></stop></linearGradient></defs><defs><linearGradient id="grad1_2" x1="43.8%" y1="0%" x2="100%" y2="100%"><stop offset="14.444444444444446%" stop-color="#d96162" stop-opacity="1"></stop><stop offset="85.55555555555554%" stop-color="#f48350" stop-opacity="1"></stop></linearGradient></defs><defs><linearGradient id="grad1_3" x1="43.8%" y1="0%" x2="100%" y2="100%"><stop offset="14.444444444444446%" stop-color="#d96162" stop-opacity="1"></stop><stop offset="85.55555555555554%" stop-color="#af4b6d" stop-opacity="1"></stop></linearGradient></defs><defs><linearGradient id="grad1_4" x1="43.8%" y1="0%" x2="100%" y2="100%"><stop offset="14.444444444444446%" stop-color="#7c3e6b" stop-opacity="1"></stop><stop offset="85.55555555555554%" stop-color="#af4b6d" stop-opacity="1"></stop></linearGradient></defs><defs><linearGradient id="grad1_5" x1="43.8%" y1="0%" x2="100%" y2="100%"><stop offset="14.444444444444446%" stop-color="#7c3e6b" stop-opacity="1"></stop><stop offset="85.55555555555554%" stop-color="#49335c" stop-opacity="1"></stop></linearGradient></defs><defs><linearGradient id="grad1_6" x1="43.8%" y1="0%" x2="100%" y2="100%"><stop offset="14.444444444444446%" stop-color="#1d2540" stop-opacity="1"></stop><stop offset="85.55555555555554%" stop-color="#49335c" stop-opacity="1"></stop></linearGradient></defs><defs><linearGradient id="grad1_7" x1="43.8%" y1="0%" x2="100%" y2="100%"><stop offset="14.444444444444446%" stop-color="#1d2540" stop-opacity="1"></stop><stop offset="85.55555555555554%" stop-color="#001220" stop-opacity="1"></stop></linearGradient></defs><defs><linearGradient id="grad2_0" x1="0%" y1="0%" x2="56.3%" y2="100%"><stop offset="14.444444444444446%" stop-color="#fbae3c" stop-opacity="1"></stop><stop offset="85.55555555555554%" stop-color="#fbae3c" stop-opacity="1"></stop></linearGradient></defs><defs><linearGradient id="grad2_1" x1="0%" y1="0%" x2="56.3%" y2="100%"><stop offset="14.444444444444446%" stop-color="#f48350" stop-opacity="1"></stop><stop offset="85.55555555555554%" stop-color="#fbae3c" stop-opacity="1"></stop></linearGradient></defs><defs><linearGradient id="grad2_2" x1="0%" y1="0%" x2="56.3%" y2="100%"><stop offset="14.444444444444446%" stop-color="#f48350" stop-opacity="1"></stop><stop offset="85.55555555555554%" stop-color="#d96162" stop-opacity="1"></stop></linearGradient></defs><defs><linearGradient id="grad2_3" x1="0%" y1="0%" x2="56.3%" y2="100%"><stop offset="14.444444444444446%" stop-color="#af4b6d" stop-opacity="1"></stop><stop offset="85.55555555555554%" stop-color="#d96162" stop-opacity="1"></stop></linearGradient></defs><defs><linearGradient id="grad2_4" x1="0%" y1="0%" x2="56.3%" y2="100%"><stop offset="14.444444444444446%" stop-color="#af4b6d" stop-opacity="1"></stop><stop offset="85.55555555555554%" stop-color="#7c3e6b" stop-opacity="1"></stop></linearGradient></defs><defs><linearGradient id="grad2_5" x1="0%" y1="0%" x2="56.3%" y2="100%"><stop offset="14.444444444444446%" stop-color="#49335c" stop-opacity="1"></stop><stop offset="85.55555555555554%" stop-color="#7c3e6b" stop-opacity="1"></stop></linearGradient></defs><defs><linearGradient id="grad2_6" x1="0%" y1="0%" x2="56.3%" y2="100%"><stop offset="14.444444444444446%" stop-color="#49335c" stop-opacity="1"></stop><stop offset="85.55555555555554%" stop-color="#1d2540" stop-opacity="1"></stop></linearGradient></defs><defs><linearGradient id="grad2_7" x1="0%" y1="0%" x2="56.3%" y2="100%"><stop offset="14.444444444444446%" stop-color="#001220" stop-opacity="1"></stop><stop offset="85.55555555555554%" stop-color="#1d2540" stop-opacity="1"></stop></linearGradient></defs><g transform="translate(960, 0)"><path d="M0 351C-37.6 349.7 -75.2 348.4 -108.5 333.8C-141.7 319.2 -170.6 291.2 -189.9 261.3C-209.1 231.4 -218.9 199.5 -239.5 174C-260.1 148.5 -291.5 129.3 -311.9 101.4C-332.3 73.4 -341.7 36.7 -351 0L0 0Z" fill="#0c1c30"></path><path d="M0 307.1C-32.9 306 -65.8 304.9 -94.9 292.1C-124 279.3 -149.2 254.8 -166.1 228.6C-183 202.5 -191.5 174.6 -209.5 152.2C-227.6 129.9 -255.1 113.1 -273 88.7C-290.8 64.2 -299 32.1 -307.1 0L0 0Z" fill="#312c4f"></path><path d="M0 263.3C-28.2 262.3 -56.4 261.3 -81.3 250.4C-106.3 239.4 -127.9 218.4 -142.4 196C-156.9 173.5 -164.2 149.6 -179.6 130.5C-195.1 111.3 -218.7 97 -234 76C-249.3 55.1 -256.3 27.5 -263.2 0L0 0Z" fill="#623965"></path><path d="M0 219.4C-23.5 218.6 -47 217.8 -67.8 208.6C-88.6 199.5 -106.6 182 -118.7 163.3C-130.7 144.6 -136.8 124.7 -149.7 108.7C-162.5 92.8 -182.2 80.8 -195 63.3C-207.7 45.9 -213.5 22.9 -219.4 0L0 0Z" fill="#96446e"></path><path d="M0 175.5C-18.8 174.9 -37.6 174.2 -54.2 166.9C-70.9 159.6 -85.3 145.6 -94.9 130.7C-104.6 115.7 -109.4 99.8 -119.7 87C-130 74.2 -145.8 64.6 -156 50.7C-166.2 36.7 -170.8 18.4 -175.5 0L0 0Z" fill="#c55469"></path><path d="M0 131.6C-14.1 131.1 -28.2 130.7 -40.7 125.2C-53.1 119.7 -64 109.2 -71.2 98C-78.4 86.8 -82.1 74.8 -89.8 65.2C-97.5 55.7 -109.3 48.5 -117 38C-124.6 27.5 -128.1 13.8 -131.6 0L0 0Z" fill="#e9705a"></path><path d="M0 87.8C-9.4 87.4 -18.8 87.1 -27.1 83.5C-35.4 79.8 -42.6 72.8 -47.5 65.3C-52.3 57.8 -54.7 49.9 -59.9 43.5C-65 37.1 -72.9 32.3 -78 25.3C-83.1 18.4 -85.4 9.2 -87.7 0L0 0Z" fill="#fa9845"></path><path d="M0 43.9C-4.7 43.7 -9.4 43.6 -13.6 41.7C-17.7 39.9 -21.3 36.4 -23.7 32.7C-26.1 28.9 -27.4 24.9 -29.9 21.7C-32.5 18.6 -36.4 16.2 -39 12.7C-41.5 9.2 -42.7 4.6 -43.9 0L0 0Z" fill="#fbae3c"></path></g><g transform="translate(0, 540)"><path d="M0 -351C23 -304 45.9 -257.1 81.3 -250.1C116.6 -243.2 164.3 -276.3 199.3 -274.3C234.2 -272.2 256.4 -234.9 278.3 -202.2C300.2 -169.5 321.8 -141.4 333.8 -108.5C345.9 -75.5 348.4 -37.8 351 0L0 0Z" fill="#0c1c30"></path><path d="M0 -307.1C20.1 -266 40.2 -224.9 71.1 -218.9C102 -212.8 143.8 -241.8 174.4 -240C204.9 -238.2 224.4 -205.5 243.5 -176.9C262.7 -148.3 281.5 -123.7 292.1 -94.9C302.6 -66.1 304.9 -33 307.1 0L0 0Z" fill="#312c4f"></path><path d="M0 -263.2C17.2 -228 34.5 -192.8 61 -187.6C87.5 -182.4 123.2 -207.3 149.4 -205.7C175.7 -204.1 192.3 -176.2 208.7 -151.6C225.1 -127.1 241.3 -106 250.4 -81.3C259.4 -56.6 261.3 -28.3 263.3 0L0 0Z" fill="#623965"></path><path d="M0 -219.4C14.4 -190 28.7 -160.7 50.8 -156.3C72.9 -152 102.7 -172.7 124.5 -171.4C146.4 -170.1 160.3 -146.8 173.9 -126.4C187.6 -105.9 201.1 -88.4 208.6 -67.8C216.2 -47.2 217.8 -23.6 219.4 0L0 0Z" fill="#96446e"></path><path d="M0 -175.5C11.5 -152 23 -128.5 40.6 -125.1C58.3 -121.6 82.2 -138.2 99.6 -137.1C117.1 -136.1 128.2 -117.4 139.2 -101.1C150.1 -84.8 160.9 -70.7 166.9 -54.2C172.9 -37.8 174.2 -18.9 175.5 0L0 0Z" fill="#c55469"></path><path d="M0 -131.6C8.6 -114 17.2 -96.4 30.5 -93.8C43.7 -91.2 61.6 -103.6 74.7 -102.8C87.8 -102.1 96.2 -88.1 104.4 -75.8C112.6 -63.6 120.7 -53 125.2 -40.7C129.7 -28.3 130.7 -14.2 131.6 0L0 0Z" fill="#e9705a"></path><path d="M0 -87.7C5.7 -76 11.5 -64.3 20.3 -62.5C29.2 -60.8 41.1 -69.1 49.8 -68.6C58.6 -68 64.1 -58.7 69.6 -50.5C75 -42.4 80.4 -35.3 83.5 -27.1C86.5 -18.9 87.1 -9.4 87.8 0L0 0Z" fill="#fa9845"></path><path d="M0 -43.9C2.9 -38 5.7 -32.1 10.2 -31.3C14.6 -30.4 20.5 -34.5 24.9 -34.3C29.3 -34 32.1 -29.4 34.8 -25.3C37.5 -21.2 40.2 -17.7 41.7 -13.6C43.2 -9.4 43.6 -4.7 43.9 0L0 0Z" fill="#fbae3c"></path></g></svg>